<svg xmlns="http://www.w3.org/2000/svg" version="1.0" viewBox="0 0 128 128">
  <path d="M97.5 6.4c-14.8 4.9-37.1 15.3-51.4 23.9-5.2 3.1-9.6 5.7-9.8 5.7-1.1 0-13.7 9.1-20.5 14.8C6.7 58.4 1.7 64.8 7 62c1.9-1 2-.9.9.8-.7 1.1-.9 2.6-.6 3.5.6 1.7 4 1.2 8.8-1.3l2.4-1.3-2.1 2.4c-3.5 3.8-7.4 12.5-6.3 13.6.6.6.4 2-.7 4-2.4 4.1-1.4 6.4 2.4 5.4 2.5-.8 15.7-7 18.7-8.9.6-.4-.4.6-2.3 2.2C23.9 86.1 17 96.3 17 98.9c0 1.6.6 2.1 2.5 2.1 2.9 0 2.9 0 1.1 3.6-2.8 5.3-.5 5.6 10.1 1.4 4.1-1.6 7.6-3 7.7-3 .1 0 0 1.4-.2 3.2l-.5 3.1 4.9-.6c2.7-.3 12.1-2.6 20.9-5.2 20.7-5.9 20.5-5.9 17-3.9C71.7 104.5 65 111.2 65 115c0 5.3 1.4 5.6 7.7 1.9 11.2-6.6 25.7-13.2 45.1-20.5l7.2-2.8v-5.7c0-3.2-.5-6.1-1.1-6.5-.6-.3-.8-1.5-.6-2.6.5-1.8.2-1.9-3.6-1.3-2.3.4-6.7 1.3-9.7 2-3 .8-5.6 1.2-5.8 1-.6-.6 5.6-3.5 7.6-3.5 1.4 0 2.6-1.5 4.3-5.3 1.3-2.8 2.4-5.7 2.4-6.2 0-.6 1.4-3.4 3.3-6.3 3.5-5.7 3.4-7.2-.3-7.2-1.8 0-2.3-.4-1.9-1.5.4-.8.4-1.5.2-1.5-1.3 0-39.6 13.1-57.3 19.5-3.8 1.4-6.5 2.2-6 1.7 2.8-2.6 45.6-29 57.3-35.4 1.9-1 4.1-3.7 5.6-6.7 3.2-6.1 3.2-6.5.4-5.7-2 .5-24.6 12.1-39.1 20-8 4.3-15.9 8.7-20.7 11.4-2.5 1.4-4 2-3.5 1.4.6-.6 12.5-8 26.6-16.4 14-8.5 26.5-16.1 27.8-17 3-2.2 9.2-11.6 8-12.3C117 8.3 74 33.3 47.5 51c-10.9 7.3-13.6 8.9-12 7.3 1-1 11.5-8.3 36-24.8a439 439 0 0 1 20.7-13.3c6.6-4 9.3-6.3 11.7-10 1.7-2.7 3.1-5.2 3.1-5.5 0-1.1-2.1-.7-9.5 1.7z"/>
</svg>
