<svg xmlns="http://www.w3.org/2000/svg" fill="none" viewBox="0 0 40 40">
  <path fill="currentColor" d="M9.5 18.55h21.05c.4 0 .74-.14 1.02-.43.29-.3.43-.65.43-1.08a1.46 1.46 0 0 0-1.5-1.5H9.45A1.48 1.48 0 0 0 8 17.05a1.46 1.46 0 0 0 1.5 1.5Zm0-6.5h21.05c.4 0 .74-.14 1.02-.43.29-.3.43-.65.43-1.08a1.46 1.46 0 0 0-1.5-1.5H9.45A1.48 1.48 0 0 0 8 10.55a1.46 1.46 0 0 0 1.5 1.5ZM0 37.4V4c0-.77.3-1.46.9-2.08C1.5 1.31 2.2 1 3 1h34c.77 0 1.46.3 2.08.93.61.61.92 1.3.92 2.07v26c0 .77-.3 1.46-.92 2.08-.62.61-1.31.92-2.08.92H8l-5.45 5.45c-.47.47-1 .57-1.62.32A1.37 1.37 0 0 1 0 37.4Zm3-3.65L6.75 30H37V4H3v29.75Z"/>
</svg>
