<svg xmlns="http://www.w3.org/2000/svg" fill="none" viewBox="3 3 30 30">
  <path fill="currentColor" d="M14.24 25.24a1 1 0 0 0 1.42 0l13.03-13.03a1 1 0 0 0 0-1.42l-.73-.73a1 1 0 0 0-1.42 0L15.66 20.94a1 1 0 0 1-1.42 0l-4.53-4.53a1 1 0 0 0-1.42 0l-.73.73a1 1 0 0 0 0 1.42l6.68 6.68ZM3 36c-.8 0-1.5-.3-2.1-.9-.6-.6-.9-1.3-.9-2.1V3C0 2.2.3 1.5.9.9 1.5.3 2.2 0 3 0h30c.8 0 1.5.3 2.1.9.6.6.9 1.3.9 2.1v30c0 .8-.3 1.5-.9 2.1-.6.6-1.3.9-2.1.9H3Zm-1-3a1 1 0 0 0 1 1h30a1 1 0 0 0 1-1V3a1 1 0 0 0-1-1H3a1 1 0 0 0-1 1v30Z"/>
</svg>
