<svg xmlns="http://www.w3.org/2000/svg" fill="none" viewBox="0 0 15 15">
  <path fill="currentColor" fill-rule="evenodd" d="M12.9 12.9c.34-.32.6-.71.76-1.14.16-.42.27-.89.3-1.58.03-.7.04-.91.04-2.68s0-1.99-.04-2.68a4.77 4.77 0 0 0-.3-1.58 3.19 3.19 0 0 0-.75-1.15 3.19 3.19 0 0 0-1.15-.75 4.77 4.77 0 0 0-1.58-.3C9.48 1 9.27 1 7.5 1s-1.99 0-2.68.04c-.7.03-1.16.14-1.58.3-.43.16-.82.42-1.15.75-.33.33-.59.72-.75 1.15-.16.42-.27.89-.3 1.58C1 5.52 1 5.73 1 7.5s0 1.99.04 2.68c.03.7.14 1.16.3 1.58.16.43.42.82.75 1.15.33.33.72.59 1.15.75.42.16.89.27 1.58.3.7.03.91.04 2.68.04s1.99 0 2.68-.04c.7-.03 1.16-.14 1.58-.3.43-.17.82-.42 1.15-.75ZM2 6.74v1.54c0 .82 0 1.03.02 1.5.03.58.06 1.01.16 1.34a2.36 2.36 0 0 0 1.64 1.7c.42.12.95.15 1.41.17.52.02.73.02 1.83.02h.44a505.25 505.25 0 0 1 2.27-.02 5.92 5.92 0 0 0 1.34-.16 2.36 2.36 0 0 0 1.7-1.64c.12-.42.15-.95.17-1.41.02-.52.02-.73.02-1.82v-.89c0-1.1 0-1.3-.02-1.83-.02-.46-.05-1-.18-1.41a2.36 2.36 0 0 0-1.7-1.64c-.32-.1-.75-.13-1.33-.16C9.29 2 9.08 2 8.24 2H7.06c-1.1 0-1.3 0-1.83.02-.46.02-1 .05-1.41.18a2.36 2.36 0 0 0-1.64 1.7c-.1.32-.13.75-.16 1.33C2 5.7 2 5.91 2 6.73Zm5.5-1.48a2.25 2.25 0 1 0 0 4.5 2.25 2.25 0 0 0 0-4.5ZM4.25 7.5a3.25 3.25 0 1 1 6.5 0 3.25 3.25 0 0 1-6.5 0Zm6.72-2.72a.75.75 0 1 0 0-1.5.75.75 0 0 0 0 1.5Z" clip-rule="evenodd"/>
</svg>
