<svg xmlns="http://www.w3.org/2000/svg" fill="none" viewBox="0 0 15 15">
  <path fill="currentColor" fill-rule="evenodd" d="M7.23 4.7c0-1.73 1.4-3.13 3.13-3.13 1.01 0 1.82.48 2.37 1.17a5.25 5.25 0 0 0 1.62-.62c-.2.6-.6 1.12-1.15 1.44.53-.06 1.04-.2 1.5-.4-.33.5-.76.95-1.24 1.31.02.18.04.35.04.53 0 3.69-2.81 7.97-7.98 7.97a7.93 7.93 0 0 1-4.3-1.25.5.5 0 0 1-.1-.75.45.45 0 0 1 .44-.22c.91.11 1.83 0 2.63-.35A3.09 3.09 0 0 1 2.5 8.52a.45.45 0 0 1 .1-.45 3.07 3.07 0 0 1-1.04-2.3v-.04a.45.45 0 0 1 .37-.44c-.22-.43-.35-.91-.35-1.42 0-.47 0-1.06.33-1.59.08-.12.2-.2.33-.2a.5.5 0 0 1 .53.15 6.96 6.96 0 0 0 4.46 2.51V4.7Zm-1.7 7.27c-.8 0-1.55-.13-2.26-.37a5.32 5.32 0 0 0 2.4-1.04.45.45 0 0 0-.28-.8 2.17 2.17 0 0 1-1.71-.9c.19 0 .37-.04.55-.09a.45.45 0 0 0-.02-.87 2.18 2.18 0 0 1-1.65-1.48c.2.05.41.08.62.09a.45.45 0 0 0 .27-.83 2.18 2.18 0 0 1-.97-1.81l.01-.45a7.95 7.95 0 0 0 5.29 2.37.5.5 0 0 0 .5-.6 2.13 2.13 0 0 1 2.07-2.61c1.24-.01 2.15 1.13 2.15 2.42a6.92 6.92 0 0 1-6.98 6.97Z" clip-rule="evenodd"/>
</svg>
