<svg xmlns="http://www.w3.org/2000/svg" fill="none" viewBox="0 0 15 15">
  <path fill="currentColor" fill-rule="evenodd" d="M7.5 1.8a5.7 5.7 0 1 0 0 11.4 5.7 5.7 0 0 0 0-11.4ZM.9 7.5a6.6 6.6 0 1 1 13.2 0 6.6 6.6 0 0 1-13.2 0Z" clip-rule="evenodd"/>
  <path fill="currentColor" fill-rule="evenodd" d="M13.5 7.9h-12v-.8h12v.8Z" clip-rule="evenodd"/>
  <path fill="currentColor" fill-rule="evenodd" d="M7.1 13.5v-12h.8v12h-.8zm3.28-6c0-2.17-.79-4.32-2.32-5.74l.48-.52a8.52 8.52 0 0 1 2.54 6.26c0 2.33-.84 4.68-2.54 6.26l-.48-.52a7.83 7.83 0 0 0 2.31-5.74zM4 7.5c0-2.32.8-4.67 2.46-6.25l.48.5A7.96 7.96 0 0 0 4.7 7.5c0 2.18.76 4.33 2.24 5.75l-.48.5A8.66 8.66 0 0 1 4 7.5z" clip-rule="evenodd"/>
  <path fill="currentColor" fill-rule="evenodd" d="M7.5 3.96c2.17 0 4.38.4 5.87 1.23a.35.35 0 1 1-.34.62C11.68 5.05 9.6 4.66 7.5 4.66c-2.1 0-4.18.4-5.53 1.15a.35.35 0 1 1-.34-.62c1.5-.83 3.7-1.23 5.87-1.23zm0 6.89c2.17 0 4.38-.4 5.87-1.24a.35.35 0 1 0-.34-.6c-1.35.75-3.42 1.14-5.53 1.14-2.1 0-4.18-.4-5.53-1.15a.35.35 0 1 0-.34.61c1.5.84 3.7 1.24 5.87 1.24z" clip-rule="evenodd"/>
</svg>
